<mxfile host="app.diagrams.net" agent="Mozilla/5.0 (Windows NT 10.0; Win64; x64) AppleWebKit/537.36 (KHTML, like Gecko) Chrome/128.0.0.0 Safari/537.36" version="24.7.14">
  <diagram name="Page-1" id="jeC8UiXrsY31kzRVU8EH">
    <mxGraphModel dx="1434" dy="772" grid="1" gridSize="10" guides="1" tooltips="1" connect="1" arrows="1" fold="1" page="1" pageScale="1" pageWidth="850" pageHeight="1100" math="0" shadow="0">
      <root>
        <mxCell id="0" />
        <mxCell id="1" parent="0" />
        <mxCell id="JLVxYsnoP1Vcni-h1sVO-5" style="edgeStyle=orthogonalEdgeStyle;rounded=0;orthogonalLoop=1;jettySize=auto;html=1;entryX=0.5;entryY=0;entryDx=0;entryDy=0;" edge="1" parent="1" source="JLVxYsnoP1Vcni-h1sVO-1" target="JLVxYsnoP1Vcni-h1sVO-2">
          <mxGeometry relative="1" as="geometry" />
        </mxCell>
        <mxCell id="JLVxYsnoP1Vcni-h1sVO-7" style="edgeStyle=orthogonalEdgeStyle;rounded=0;orthogonalLoop=1;jettySize=auto;html=1;entryX=0.5;entryY=0;entryDx=0;entryDy=0;" edge="1" parent="1" source="JLVxYsnoP1Vcni-h1sVO-1" target="JLVxYsnoP1Vcni-h1sVO-4">
          <mxGeometry relative="1" as="geometry" />
        </mxCell>
        <mxCell id="JLVxYsnoP1Vcni-h1sVO-8" style="edgeStyle=orthogonalEdgeStyle;rounded=0;orthogonalLoop=1;jettySize=auto;html=1;" edge="1" parent="1" source="JLVxYsnoP1Vcni-h1sVO-1">
          <mxGeometry relative="1" as="geometry">
            <mxPoint x="120" y="290" as="targetPoint" />
          </mxGeometry>
        </mxCell>
        <mxCell id="JLVxYsnoP1Vcni-h1sVO-13" style="edgeStyle=orthogonalEdgeStyle;rounded=0;orthogonalLoop=1;jettySize=auto;html=1;" edge="1" parent="1" source="JLVxYsnoP1Vcni-h1sVO-1" target="JLVxYsnoP1Vcni-h1sVO-9">
          <mxGeometry relative="1" as="geometry" />
        </mxCell>
        <mxCell id="JLVxYsnoP1Vcni-h1sVO-1" value="CalculateDiscountService&lt;div&gt;+calculateNetAmount (User, Invoice) :&amp;nbsp; &amp;nbsp; &amp;nbsp; &amp;nbsp; &amp;nbsp; &amp;nbsp; &amp;nbsp; CompletableFuture &amp;lt;Double&amp;gt;&lt;/div&gt;" style="ellipse;whiteSpace=wrap;html=1;" vertex="1" parent="1">
          <mxGeometry x="260" y="10" width="290" height="90" as="geometry" />
        </mxCell>
        <mxCell id="JLVxYsnoP1Vcni-h1sVO-2" value="User&lt;div&gt;-userId&lt;/div&gt;" style="ellipse;whiteSpace=wrap;html=1;" vertex="1" parent="1">
          <mxGeometry x="10" y="190" width="90" height="60" as="geometry" />
        </mxCell>
        <mxCell id="JLVxYsnoP1Vcni-h1sVO-3" value="Product&lt;div&gt;-id&lt;/div&gt;&lt;div&gt;-name&lt;/div&gt;&lt;div&gt;-price&lt;/div&gt;" style="ellipse;whiteSpace=wrap;html=1;" vertex="1" parent="1">
          <mxGeometry x="60" y="290" width="120" height="80" as="geometry" />
        </mxCell>
        <mxCell id="JLVxYsnoP1Vcni-h1sVO-4" value="Invoice&lt;div&gt;-finalAmount&lt;/div&gt;&lt;div&gt;-groceyAmount&lt;/div&gt;&lt;div&gt;-non&lt;span style=&quot;background-color: initial;&quot;&gt;GroceyAmount&lt;/span&gt;&lt;/div&gt;&lt;div&gt;&lt;span style=&quot;background-color: initial;&quot;&gt;-products&lt;/span&gt;&lt;/div&gt;" style="ellipse;whiteSpace=wrap;html=1;" vertex="1" parent="1">
          <mxGeometry x="150" y="370" width="120" height="80" as="geometry" />
        </mxCell>
        <mxCell id="JLVxYsnoP1Vcni-h1sVO-9" value="FixedDiscountStrategyImplementation&lt;div&gt;+ applyDiscount(User, Invoice) : double&lt;/div&gt;" style="ellipse;whiteSpace=wrap;html=1;" vertex="1" parent="1">
          <mxGeometry x="330" y="280" width="230" height="120" as="geometry" />
        </mxCell>
        <mxCell id="JLVxYsnoP1Vcni-h1sVO-17" style="edgeStyle=orthogonalEdgeStyle;rounded=0;orthogonalLoop=1;jettySize=auto;html=1;entryX=0.5;entryY=0;entryDx=0;entryDy=0;" edge="1" parent="1" source="JLVxYsnoP1Vcni-h1sVO-10" target="JLVxYsnoP1Vcni-h1sVO-11">
          <mxGeometry relative="1" as="geometry" />
        </mxCell>
        <mxCell id="JLVxYsnoP1Vcni-h1sVO-10" value="PercentageDiscountStrategyImplementation&lt;div&gt;+ applyDiscount(User, Invoice) : double&lt;/div&gt;" style="ellipse;whiteSpace=wrap;html=1;" vertex="1" parent="1">
          <mxGeometry x="590" y="280" width="250" height="120" as="geometry" />
        </mxCell>
        <mxCell id="JLVxYsnoP1Vcni-h1sVO-11" value="CalculateDiscountStrategy&lt;div&gt;+ applyDiscount(User, Invoice) : double&lt;/div&gt;" style="ellipse;whiteSpace=wrap;html=1;" vertex="1" parent="1">
          <mxGeometry x="460" y="500" width="230" height="120" as="geometry" />
        </mxCell>
        <mxCell id="JLVxYsnoP1Vcni-h1sVO-12" value="Utility&lt;div&gt;+fetchEligibleDiscount (User)&lt;/div&gt;" style="ellipse;whiteSpace=wrap;html=1;" vertex="1" parent="1">
          <mxGeometry x="630" y="102" width="200" height="90" as="geometry" />
        </mxCell>
        <mxCell id="JLVxYsnoP1Vcni-h1sVO-14" style="edgeStyle=orthogonalEdgeStyle;rounded=0;orthogonalLoop=1;jettySize=auto;html=1;entryX=0.076;entryY=0.283;entryDx=0;entryDy=0;entryPerimeter=0;" edge="1" parent="1" source="JLVxYsnoP1Vcni-h1sVO-1" target="JLVxYsnoP1Vcni-h1sVO-10">
          <mxGeometry relative="1" as="geometry" />
        </mxCell>
        <mxCell id="JLVxYsnoP1Vcni-h1sVO-15" style="edgeStyle=orthogonalEdgeStyle;rounded=0;orthogonalLoop=1;jettySize=auto;html=1;entryX=0.425;entryY=1.044;entryDx=0;entryDy=0;entryPerimeter=0;" edge="1" parent="1" source="JLVxYsnoP1Vcni-h1sVO-10" target="JLVxYsnoP1Vcni-h1sVO-12">
          <mxGeometry relative="1" as="geometry" />
        </mxCell>
        <mxCell id="JLVxYsnoP1Vcni-h1sVO-16" style="edgeStyle=orthogonalEdgeStyle;rounded=0;orthogonalLoop=1;jettySize=auto;html=1;entryX=0.335;entryY=0.042;entryDx=0;entryDy=0;entryPerimeter=0;" edge="1" parent="1" source="JLVxYsnoP1Vcni-h1sVO-9" target="JLVxYsnoP1Vcni-h1sVO-11">
          <mxGeometry relative="1" as="geometry" />
        </mxCell>
      </root>
    </mxGraphModel>
  </diagram>
</mxfile>
